<svg width="90" height="90" viewBox="0 0 90 90" xmlns="http://www.w3.org/2000/svg">
<circle cx="45" cy="45" r="42" fill="none" stroke="#ef4f86" stroke-width="3"/>
<path d="M45 16 C36 29 35 42 45 58 C55 42 54 29 45 16Z" fill="none" stroke="#ef4f86" stroke-width="3" stroke-linejoin="round"/>
<path d="M29 28 C24 43 29 55 45 65 C43 47 38 36 29 28Z" fill="none" stroke="#ef4f86" stroke-width="3" stroke-linejoin="round"/>
<path d="M61 28 C66 43 61 55 45 65 C47 47 52 36 61 28Z" fill="none" stroke="#ef4f86" stroke-width="3" stroke-linejoin="round"/>
<path d="M18 48 C28 49 37 56 45 70 C31 68 21 61 18 48Z" fill="none" stroke="#ef4f86" stroke-width="3" stroke-linejoin="round"/>
<path d="M72 48 C62 49 53 56 45 70 C59 68 69 61 72 48Z" fill="none" stroke="#ef4f86" stroke-width="3" stroke-linejoin="round"/>
</svg>